<svg width="24" height="24" viewBox="0 0 24 24" fill="none" xmlns="http://www.w3.org/2000/svg">
<path d="M16 17.5L18.6375 20.0104L23 15.5" stroke="currentColor" stroke-opacity="0.4" stroke-width="1.4" stroke-linecap="round" stroke-linejoin="round"/>
<path d="M22 3L22.5315 3.45555C22.7094 3.248 22.7502 2.95586 22.636 2.7075C22.5217 2.45914 22.2734 2.3 22 2.3V3ZM22 10V10.7C22.2734 10.7 22.5217 10.5409 22.636 10.2925C22.7502 10.0441 22.7094 9.752 22.5315 9.54445L22 10ZM20.9524 4.22223L20.4209 3.76668L20.9524 4.22223ZM20.9524 8.77777L20.4209 9.23332L20.9524 8.77777ZM5.5 3.7H22V2.3H5.5V3.7ZM22 9.3H5.5V10.7H22V9.3ZM21.4685 2.54445L20.4209 3.76668L21.4839 4.67778L22.5315 3.45555L21.4685 2.54445ZM20.4209 9.23332L21.4685 10.4556L22.5315 9.54445L21.4839 8.32222L20.4209 9.23332ZM20.4209 3.76668C19.0727 5.33953 19.0727 7.66047 20.4209 9.23332L21.4839 8.32222C20.5851 7.27364 20.5851 5.72636 21.4839 4.67778L20.4209 3.76668ZM5.5 9.3C3.9536 9.3 2.7 8.0464 2.7 6.5H1.3C1.3 8.8196 3.1804 10.7 5.5 10.7V9.3ZM5.5 2.3C3.1804 2.3 1.3 4.1804 1.3 6.5H2.7C2.7 4.9536 3.9536 3.7 5.5 3.7V2.3Z" fill="currentColor" fill-opacity="0.4"/>
<path fill-rule="evenodd" clip-rule="evenodd" d="M15.9488 13.2998H2.00006C1.72669 13.2998 1.47833 13.4589 1.3641 13.7073C1.24987 13.9557 1.29067 14.2478 1.46858 14.4554L2.5162 15.6776C3.41498 16.7262 3.41498 18.2734 2.5162 19.322L1.46858 20.5443C1.29067 20.7518 1.24987 21.0439 1.3641 21.2923C1.47833 21.5407 1.72669 21.6998 2.00006 21.6998H15.9488C15.4806 21.3035 15.0795 20.8304 14.7651 20.2998H3.52201L3.57916 20.2331C4.92733 18.6603 4.92733 16.3393 3.57916 14.7665L3.52201 14.6998H14.7651C15.0795 14.1692 15.4806 13.6961 15.9488 13.2998Z" fill="currentColor" fill-opacity="0.4"/>
</svg>
