<svg width="72" height="72" viewBox="0 0 72 72" fill="none" xmlns="http://www.w3.org/2000/svg">
<path fill-rule="evenodd" clip-rule="evenodd" d="M36 3L36.5447 3.00441C54.2505 3.29149 68.5327 17.508 68.9888 35.1555L69 36.0261L68.9957 36.5447C68.7086 54.2506 54.4921 68.5327 36.8446 68.9888L35.9739 69L35.4553 68.9957C17.7495 68.7086 3.46735 54.4921 3.01124 36.8446L3 35.974L3.00431 35.4554C3.29138 17.7495 17.5079 3.46735 35.1306 3.01124L36 3ZM35.982 7.49705L35.1838 7.51147C20.2709 7.93128 8.18974 19.8184 7.52882 34.6793L7.50415 35.4928L7.5 35.974C7.5 51.2822 19.5448 63.7981 34.679 64.4712L35.4927 64.4958L35.9739 64.5C51.2822 64.5 63.7981 52.4552 64.4712 37.321L64.4958 36.5073L64.5 36.0261C64.5 20.7179 52.4552 8.20204 37.3218 7.52894L36.5082 7.50427L35.982 7.49705ZM32.525 21.74C32.3765 19.7204 33.975 18 36 18C38.025 18 39.6235 19.7204 39.475 21.74L38.0125 41.6301C37.935 42.6843 37.0571 43.5 36 43.5C34.9429 43.5 34.065 42.6843 33.9875 41.6301L32.525 21.74ZM36 46.5C33.9291 46.5 32.25 48.1791 32.25 50.25C32.25 52.321 33.9291 54 36 54C38.0709 54 39.75 52.321 39.75 50.25C39.75 48.1791 38.0709 46.5 36 46.5Z" fill="currentColor" fill-opacity="0.4"/>
<mask id="mask0_178_305873" style="mask-type:alpha" maskUnits="userSpaceOnUse" x="3" y="3" width="66" height="66">
<path fill-rule="evenodd" clip-rule="evenodd" d="M36 3L36.5447 3.00441C54.2505 3.29149 68.5327 17.508 68.9888 35.1555L69 36.0261L68.9957 36.5447C68.7086 54.2506 54.4921 68.5327 36.8446 68.9888L35.9739 69L35.4553 68.9957C17.7495 68.7086 3.46735 54.4921 3.01124 36.8446L3 35.974L3.00431 35.4554C3.29138 17.7495 17.5079 3.46735 35.1306 3.01124L36 3ZM35.982 7.49705L35.1838 7.51147C20.2709 7.93128 8.18974 19.8184 7.52882 34.6793L7.50415 35.4928L7.5 35.974C7.5 51.2822 19.5448 63.7981 34.679 64.4712L35.4927 64.4958L35.9739 64.5C51.2822 64.5 63.7981 52.4552 64.4712 37.321L64.4958 36.5073L64.5 36.0261C64.5 20.7179 52.4552 8.20204 37.3218 7.52894L36.5082 7.50427L35.982 7.49705ZM32.525 21.74C32.3765 19.7204 33.975 18 36 18C38.025 18 39.6235 19.7204 39.475 21.74L38.0125 41.6301C37.935 42.6843 37.0571 43.5 36 43.5C34.9429 43.5 34.065 42.6843 33.9875 41.6301L32.525 21.74ZM36 46.5C33.9291 46.5 32.25 48.1791 32.25 50.25C32.25 52.321 33.9291 54 36 54C38.0709 54 39.75 52.321 39.75 50.25C39.75 48.1791 38.0709 46.5 36 46.5Z" fill="currentColor"/>
</mask>
<g mask="url(#mask0_178_305873)">
</g>
</svg>
