<svg width="24px" height="24px" viewBox="0 0 24 24" version="1.1" xmlns="http://www.w3.org/2000/svg" xmlns:xlink="http://www.w3.org/1999/xlink">
    <title>chevron_backward</title>
    <g id="页面-1" stroke="none" stroke-width="1" fill="none" fill-rule="evenodd">
        <g id="chevron_backward" fill="currentColor" fill-rule="nonzero">
            <rect id="矩形" opacity="0" x="0" y="0" width="24" height="24"></rect>
            <path d="M8.09,12 L15.05,5.04 C15.19,4.88 15.26,4.7 15.26,4.5 C15.26,4.3 15.19,4.12 15.05,3.96 C14.9033333,3.81333333 14.7266667,3.74 14.52,3.74 C14.3133333,3.74 14.1366667,3.81333333 13.99,3.96 L7.01,10.94 C6.72333333,11.2333333 6.58,11.5866667 6.58,12 C6.58,12.4133333 6.72333333,12.7666667 7.01,13.06 L13.97,19.99 C14.0966667,20.1366667 14.2666667,20.21 14.48,20.21 C14.7,20.21 14.88,20.1366667 15.02,19.99 C15.1666667,19.85 15.24,19.6733333 15.24,19.46 C15.24,19.2533333 15.1666667,19.08 15.02,18.94 L8.09,12 Z" id="路径"></path>
        </g>
    </g>
</svg>
