<svg width="24" height="24" viewBox="0 0 24 24" fill="none" xmlns="http://www.w3.org/2000/svg">
<circle cx="12" cy="12" r="12" fill="currentColor" fill-opacity="0.101961"/>
<g opacity="0.9">
<mask id="mask0_178_137136" style="mask-type:alpha" maskUnits="userSpaceOnUse" x="6" y="6" width="12" height="12">
<path fill-rule="evenodd" clip-rule="evenodd" d="M17.8336 6.16622C18.0533 6.38589 18.0533 6.74204 17.8336 6.96171L6.96183 17.8335C6.74216 18.0531 6.38601 18.0531 6.16634 17.8335C5.94667 17.6138 5.94667 17.2577 6.16634 17.038L11.2046 11.9995L6.16634 6.96171C5.94667 6.74204 5.94667 6.38589 6.16634 6.16622C6.38601 5.94655 6.74216 5.94655 6.96183 6.16622L12 11.2041L17.0381 6.16622C17.2578 5.94655 17.6139 5.94655 17.8336 6.16622ZM17.8336 17.038C18.0533 17.2577 18.0533 17.6138 17.8336 17.8335C17.6139 18.0531 17.2578 18.0531 17.0381 17.8335L12.5304 13.3255L13.3258 12.5302L17.8336 17.038Z" fill="currentColor"/>
</mask>
<g mask="url(#mask0_178_137136)">
<rect x="3" y="3" width="18" height="18" fill="currentColor" fill-opacity="0.9"/>
</g>
</g>
</svg>
