<svg width="20" height="9" viewBox="0 0 20 9" fill="none" xmlns="http://www.w3.org/2000/svg">
<g clip-path="url(#clip0_892_279624)">
<path fill-rule="evenodd" clip-rule="evenodd" d="M1.48148 0H16.2963C17.1146 0 17.7778 0.636158 17.7778 1.42105V7.57895C17.7778 8.36384 17.1146 9 16.2963 9H1.48148C0.66321 9 0 8.36384 0 7.57895V1.42105C0 0.636158 0.66321 0 1.48148 0ZM17.284 1.42103C17.284 0.898555 16.841 0.47366 16.2963 0.47366H1.48149C0.936798 0.47366 0.493835 0.898555 0.493835 1.42103V7.57892C0.493835 8.1014 0.936798 8.52629 1.48149 8.52629H16.2963C16.841 8.52629 17.284 8.1014 17.284 7.57892V1.42103ZM16.5432 7.34209C16.5432 7.60356 16.3222 7.81577 16.0494 7.81577H1.72839C1.45579 7.81577 1.23456 7.60356 1.23456 7.34209V1.65788C1.23456 1.3964 1.45579 1.18419 1.72839 1.18419H16.0494C16.3222 1.18419 16.5432 1.3964 16.5432 1.65788V7.34209ZM19.2592 7.34209C19.6684 7.34209 20 7.02401 20 6.63157V2.36841C20 1.97596 19.6684 1.65788 19.2592 1.65788C18.8501 1.65788 18.5185 1.97596 18.5185 2.36841V6.63157C18.5185 7.02401 18.8501 7.34209 19.2592 7.34209Z" fill="currentColor" fill-opacity="0.4"/>
</g>
<defs>
<clipPath id="clip0_892_279624">
<rect width="20" height="9" fill="currentColor"/>
</clipPath>
</defs>
</svg>
