<?xml version="1.0" encoding="UTF-8"?>
<svg width="25px" height="25px" viewBox="0 0 25 25" version="1.1" xmlns="http://www.w3.org/2000/svg" xmlns:xlink="http://www.w3.org/1999/xlink">
    <title>bookshelf_badge_plus</title>
    <g id="页面-1" stroke="none" stroke-width="1" fill="none" fill-rule="evenodd">
        <g id="编组备份" transform="translate(-236.000000, -48.000000)" fill="currentColor" fill-rule="nonzero">
            <g id="编组-2" transform="translate(12.000000, 32.142857)">
                <g id="Navigation/TitleBar/Phone/1-Line/secondary-page/Back-with-1-icon" transform="translate(4.000000, 0.000000)">
                    <g id="AppBar/item/right/3icons备份" transform="translate(191.500000, 8.000000)">
                        <g id="bookshelf_badge_plus" transform="translate(28.703356, 8.000000)">
                            <rect id="矩形" opacity="0" x="0" y="0" width="24" height="24"></rect>
                            <path d="M13.18,2.64 C13.42,2.59333333 13.6333333,2.65666667 13.82,2.83 C14.0133333,3.01 14.1266667,3.22666667 14.16,3.48 L14.16,3.48 L16.1067704,14.4775842 C16.0575844,14.504209 16.008661,14.5316809 15.96,14.56 C15.5110904,14.8175711 15.1139689,15.1289611 14.7686354,15.49417 L12.77,4.22 L11.64,4.42 L13.8390737,16.8483308 C13.4930246,17.5619406 13.32,18.3291637 13.32,19.15 C13.32,20.11 13.5566667,21 14.03,21.82 C14.1141064,21.9645209 14.2035803,22.1036742 14.2984218,22.2374601 L14.11,22.27 C13.89,22.3166667 13.6833333,22.2533333 13.49,22.08 C13.2966667,21.9066667 13.1766667,21.69 13.13,21.43 L13.13,21.43 L10.08,4.2 C10.0333333,3.92666667 10.09,3.67333333 10.25,3.44 C10.41,3.21333333 10.6266667,3.07333333 10.9,3.02 L10.9,3.02 Z M7.78,2.69 C8.19333333,2.69 8.54666667,2.83666667 8.84,3.13 C9.14,3.43 9.29,3.78666667 9.29,4.2 L9.29,4.2 L9.29,20.71 C9.29,21.13 9.14,21.4833333 8.84,21.77 C8.54666667,22.0566667 8.19333333,22.2 7.78,22.2 L7.78,22.2 L3.46,22.2 C3.04,22.2 2.68333333,22.0566667 2.39,21.77 C2.09,21.4833333 1.94,21.13 1.94,20.71 L1.94,20.71 L1.94,4.2 C1.94,3.78666667 2.09,3.43 2.39,3.13 C2.68333333,2.83666667 3.04,2.69 3.46,2.69 L3.46,2.69 Z M7.78,4.2 L3.46,4.2 L3.46,20.71 L7.78,20.71 L7.78,4.2 Z M18.38,2.64 C18.62,2.60666667 18.8333333,2.67333333 19.02,2.84 C19.2066667,3.01333333 19.3233333,3.22666667 19.37,3.48 L19.37,3.48 L21.3156169,14.5747893 C21.3070968,14.56984 21.2985578,14.5649102 21.29,14.56 C20.782855,14.2672578 20.2489348,14.0650416 19.6882392,13.9533515 L17.98,4.22 L16.85,4.42 L18.502,13.8521515 L18.302716,13.8587654 C17.8601516,13.8834295 17.4337152,13.9601434 17.0234069,14.0889071 L15.29,4.2 C15.2233333,3.92666667 15.27,3.67333333 15.43,3.44 C15.59,3.21333333 15.8066667,3.07333333 16.08,3.02 L16.08,3.02 Z M6.72,12.79 C6.92666667,12.79 7.10333333,12.8633333 7.25,13.01 C7.39,13.15 7.46,13.3266667 7.46,13.54 C7.46,13.7466667 7.39,13.92 7.25,14.06 C7.10333333,14.2066667 6.92666667,14.28 6.72,14.28 L6.72,14.28 L4.51,14.28 C4.30333333,14.28 4.12666667,14.2066667 3.98,14.06 C3.84,13.92 3.77,13.7466667 3.77,13.54 C3.77,13.3266667 3.84,13.15 3.98,13.01 C4.12666667,12.8633333 4.30333333,12.79 4.51,12.79 L4.51,12.79 Z M6.72,8.78 C6.92666667,8.78 7.10333333,8.85666667 7.25,9.01 C7.39,9.16333333 7.46,9.34333333 7.46,9.55 C7.46,9.75666667 7.39,9.93333333 7.25,10.08 C7.10333333,10.2266667 6.92666667,10.3 6.72,10.3 L6.72,10.3 L4.51,10.3 C4.30333333,10.3 4.12666667,10.2266667 3.98,10.08 C3.84,9.93333333 3.77,9.75666667 3.77,9.55 C3.77,9.34333333 3.84,9.16333333 3.98,9.01 C4.12666667,8.85666667 4.30333333,8.78 4.51,8.78 L4.51,8.78 Z" id="形状"></path>
                            <path d="M14.64,19.15 C14.64,19.87 14.82,20.54 15.18,21.16 C15.54,21.7733333 16.0233333,22.26 16.63,22.62 C17.2366667,22.98 17.9,23.16 18.62,23.16 C19.34,23.16 20.01,22.98 20.63,22.62 C21.2433333,22.26 21.73,21.7733333 22.09,21.16 C22.45,20.54 22.63,19.87 22.63,19.15 C22.63,18.43 22.45,17.7666667 22.09,17.16 C21.73,16.5533333 21.2433333,16.07 20.63,15.71 C20.01,15.35 19.34,15.17 18.62,15.17 C17.9,15.17 17.2366667,15.35 16.63,15.71 C16.0233333,16.07 15.54,16.5533333 15.18,17.16 C14.82,17.7666667 14.64,18.43 14.64,19.15 Z M20.59,18.65 C20.7366667,18.65 20.8533333,18.6966667 20.94,18.79 C21.0266667,18.89 21.07,19.0033333 21.07,19.13 C21.07,19.27 21.0266667,19.39 20.94,19.49 C20.8533333,19.5833333 20.7366667,19.63 20.59,19.63 L19.15,19.63 L19.15,21.1 C19.15,21.2266667 19.1,21.3366667 19,21.43 C18.8933333,21.53 18.7766667,21.58 18.65,21.58 C18.5033333,21.58 18.3833333,21.53 18.29,21.43 C18.19,21.3366667 18.14,21.2266667 18.14,21.1 L18.14,19.63 L16.68,19.63 C16.5533333,19.63 16.44,19.5833333 16.34,19.49 C16.2466667,19.39 16.2,19.27 16.2,19.13 C16.2,19.0033333 16.2466667,18.89 16.34,18.79 C16.44,18.6966667 16.5533333,18.65 16.68,18.65 L18.14,18.65 L18.14,17.18 C18.14,17.04 18.19,16.92 18.29,16.82 C18.3833333,16.7266667 18.5033333,16.68 18.65,16.68 C18.7766667,16.68 18.8933333,16.7266667 19,16.82 C19.1,16.92 19.15,17.04 19.15,17.18 L19.15,18.65 L20.59,18.65 Z" id="形状"></path>
                        </g>
                    </g>
                </g>
            </g>
        </g>
    </g>
</svg>
