<svg width="16" height="16" viewBox="0 0 16 16" fill="none" xmlns="http://www.w3.org/2000/svg">
<g opacity="0.2">
<mask id="mask0_237_213898" style="mask-type:alpha" maskUnits="userSpaceOnUse" x="3" y="3" width="10" height="10">
<path fill-rule="evenodd" clip-rule="evenodd" d="M4.11092 11.889C4.30619 12.0842 4.62277 12.0842 4.81803 11.889L11.8891 4.81791C12.0844 4.62265 12.0844 4.30606 11.8891 4.1108C11.6938 3.91554 11.3773 3.91554 11.182 4.1108L8.00001 7.29278L4.81803 4.1108C4.62277 3.91554 4.30619 3.91554 4.11092 4.1108C3.91566 4.30606 3.91566 4.62265 4.11092 4.81791L7.2929 7.99989L4.11092 11.1819C3.91566 11.3771 3.91566 11.6937 4.11092 11.889ZM11.8891 11.889C12.0844 11.6937 12.0844 11.3771 11.8891 11.1819L9.06067 8.35344L8.35356 9.06055L11.182 11.889C11.3773 12.0842 11.6938 12.0842 11.8891 11.889Z" fill="white"/>
</mask>
<g mask="url(#mask0_237_213898)">
<rect x="2" y="2" width="12" height="12" fill="black" fill-opacity="0.9"/>
</g>
</g>
</svg>
