<svg width="24" height="24" viewBox="0 0 24 24" fill="none" xmlns="http://www.w3.org/2000/svg">
<mask id="mask0_316_222512" style="mask-type:alpha" maskUnits="userSpaceOnUse" x="2" y="4" width="20" height="16">
<path fill-rule="evenodd" clip-rule="evenodd" d="M3.5 6.5C4.05228 6.5 4.5 6.05228 4.5 5.5C4.5 4.94772 4.05228 4.5 3.5 4.5C2.94772 4.5 2.5 4.94772 2.5 5.5C2.5 6.05228 2.94772 6.5 3.5 6.5ZM7.75 4.75C7.33579 4.75 7 5.08579 7 5.5C7 5.91421 7.33579 6.25 7.75 6.25H21.25C21.6642 6.25 22 5.91421 22 5.5C22 5.08579 21.6642 4.75 21.25 4.75H7.75ZM7.75 11.25C7.33579 11.25 7 11.5858 7 12C7 12.4142 7.33579 12.75 7.75 12.75H21.25C21.6642 12.75 22 12.4142 22 12C22 11.5858 21.6642 11.25 21.25 11.25H7.75ZM7 18.5C7 18.0858 7.33579 17.75 7.75 17.75H21.25C21.6642 17.75 22 18.0858 22 18.5C22 18.9142 21.6642 19.25 21.25 19.25H7.75C7.33579 19.25 7 18.9142 7 18.5ZM4.5 12C4.5 12.5523 4.05228 13 3.5 13C2.94772 13 2.5 12.5523 2.5 12C2.5 11.4477 2.94772 11 3.5 11C4.05228 11 4.5 11.4477 4.5 12ZM3.5 19.5C4.05228 19.5 4.5 19.0523 4.5 18.5C4.5 17.9477 4.05228 17.5 3.5 17.5C2.94772 17.5 2.5 17.9477 2.5 18.5C2.5 19.0523 2.94772 19.5 3.5 19.5Z" fill="white"/>
</mask>
<g mask="url(#mask0_316_222512)">
<rect width="24" height="24" fill="white" fill-opacity="0.6"/>
</g>
</svg>
