<svg width="16" height="16" viewBox="0 0 16 16" fill="none" xmlns="http://www.w3.org/2000/svg">
<path fill-rule="evenodd" clip-rule="evenodd" d="M8 2.5C6.48122 2.5 5.25 3.73122 5.25 5.25V6.5H4C3.44772 6.5 3 6.94772 3 7.5V12.5C3 13.0523 3.44772 13.5 4 13.5H12C12.5523 13.5 13 13.0523 13 12.5V7.5C13 6.94772 12.5523 6.5 12 6.5H10.75V5.25C10.75 3.73122 9.51878 2.5 8 2.5ZM9.75 6.5V5.25C9.75 4.2835 8.9665 3.5 8 3.5C7.0335 3.5 6.25 4.2835 6.25 5.25V6.5H9.75Z" fill="#24272F" fill-opacity="0.56"/>
</svg>
