<svg width="24" height="24" viewBox="0 0 24 24" fill="none" xmlns="http://www.w3.org/2000/svg">
<g clip-path="url(#clip0_316_222542)">
<mask id="mask0_316_222542" style="mask-type:alpha" maskUnits="userSpaceOnUse" x="1" y="1" width="22" height="22">
<path fill-rule="evenodd" clip-rule="evenodd" d="M12.75 21.75C12.75 22.1642 12.4142 22.5 12 22.5C11.5858 22.5 11.25 22.1642 11.25 21.75V20.75C11.25 20.3358 11.5858 20 12 20C12.4142 20 12.75 20.3358 12.75 20.75V21.75ZM12.75 3.25C12.75 3.66421 12.4142 4 12 4C11.5858 4 11.25 3.66421 11.25 3.25V2.25C11.25 1.83579 11.5858 1.5 12 1.5C12.4142 1.5 12.75 1.83579 12.75 2.25V3.25ZM4.3986 19.6014C4.6915 19.8943 5.16637 19.8943 5.45926 19.6014L6.34315 18.7175C6.63604 18.4246 6.63604 17.9497 6.34315 17.6569C6.05025 17.364 5.57538 17.364 5.28249 17.6569L4.3986 18.5407C4.10571 18.8336 4.10571 19.3085 4.3986 19.6014ZM17.6569 6.34315C17.9497 6.63604 18.4246 6.63604 18.7175 6.34315L19.6014 5.45926C19.8943 5.16637 19.8943 4.69149 19.6014 4.3986C19.3085 4.10571 18.8336 4.10571 18.5407 4.3986L17.6569 5.28249C17.364 5.57538 17.364 6.05025 17.6569 6.34315ZM19.6014 18.5407C19.8943 18.8336 19.8943 19.3085 19.6014 19.6014C19.3085 19.8943 18.8336 19.8943 18.5407 19.6014L17.6569 18.7175C17.364 18.4246 17.364 17.9497 17.6569 17.6569C17.9497 17.364 18.4246 17.364 18.7175 17.6569L19.6014 18.5407ZM6.34315 5.28249C6.63604 5.57538 6.63604 6.05025 6.34315 6.34315C6.05025 6.63604 5.57538 6.63604 5.28249 6.34315L4.3986 5.45926C4.10571 5.16637 4.10571 4.6915 4.3986 4.3986C4.69149 4.10571 5.16637 4.10571 5.45926 4.3986L6.34315 5.28249ZM5 12C5 15.866 8.13401 19 12 19C15.866 19 19 15.866 19 12C19 8.13401 15.866 5 12 5C8.13401 5 5 8.13401 5 12ZM17.5 12C17.5 15.0376 15.0376 17.5 12 17.5C8.96243 17.5 6.5 15.0376 6.5 12C6.5 8.96243 8.96243 6.5 12 6.5C15.0376 6.5 17.5 8.96243 17.5 12ZM22.75 12C22.75 11.5858 22.4142 11.25 22 11.25H20.75C20.3358 11.25 20 11.5858 20 12C20 12.4142 20.3358 12.75 20.75 12.75H22C22.4142 12.75 22.75 12.4142 22.75 12ZM4 12C4 11.5858 3.66421 11.25 3.25 11.25H2C1.58579 11.25 1.25 11.5858 1.25 12C1.25 12.4142 1.58579 12.75 2 12.75H3.25C3.66421 12.75 4 12.4142 4 12Z" fill="white"/>
</mask>
<g mask="url(#mask0_316_222542)">
<rect width="24" height="24" fill="white" fill-opacity="0.6"/>
</g>
</g>
<defs>
<clipPath id="clip0_316_222542">
<rect width="24" height="24" fill="white"/>
</clipPath>
</defs>
</svg>
