<svg width="24" height="24" viewBox="0 0 24 24" fill="none" xmlns="http://www.w3.org/2000/svg">
<mask id="mask0_247_70567" style="mask-type:alpha" maskUnits="userSpaceOnUse" x="2" y="1" width="21" height="22">
<path fill-rule="evenodd" clip-rule="evenodd" d="M11.859 3.35307C12.3136 2.55201 11.5901 1.59932 10.6917 1.81584L10.6247 1.83197L10.4691 1.87141C5.35145 3.21057 2.11941 8.28234 3.1293 13.4778L3.22102 13.9497L3.25394 14.1119C4.38191 19.4487 9.6131 22.908 15.0192 21.8572C17.9556 21.2864 20.4357 19.4746 21.8783 16.9322C22.3319 16.1327 21.6122 15.1813 20.7147 15.394L20.5524 15.4308L20.389 15.4643C16.0749 16.3029 11.9018 13.5059 11.0681 9.21719L10.9764 8.74531L10.9516 8.61169L10.9295 8.48153C10.6434 6.70214 10.9783 4.90495 11.859 3.35307ZM10.0846 3.56062L10.0639 3.60879C9.36628 5.26419 9.15641 7.08555 9.47475 8.87449L9.50166 9.01948L9.59568 9.5034L9.62663 9.65598C10.6335 14.42 15.1145 17.5903 19.9081 17.0541L20.0242 17.04L19.9342 17.1608C18.6679 18.8235 16.8305 19.977 14.733 20.3847C10.0835 21.2885 5.59024 18.2769 4.69346 13.6634L4.60174 13.1916L4.57853 13.0673C3.84391 8.96694 6.2085 4.97281 10.0746 3.56422L10.0846 3.56062Z" fill="white"/>
</mask>
<g mask="url(#mask0_247_70567)">
<rect width="24" height="24" fill="black" fill-opacity="0.9"/>
</g>
</svg>
