<svg width="34" height="7" viewBox="0 0 34 7" fill="currentColor" xmlns="http://www.w3.org/2000/svg">
<path fill-rule="evenodd" clip-rule="evenodd" d="M17.0285 6.99982C17.038 6.99994 17.0475 7 17.057 7V6.99928C18.1947 6.97028 19.0408 6.07473 20.1193 4.93332C22.0699 2.86877 24.7805 -0.000137329 31.3512 -0.000137329C40.5792 -0.000137329 18.3348 -3.77484 17.057 -3.9904V-4C17.057 -4 17.0473 -3.99838 17.0285 -3.99521C17.0096 -3.99838 17 -4 17 -4V-3.9904C15.7221 -3.77484 -6.52223 -0.000137329 2.70579 -0.000137329C9.27646 -0.000137329 11.9871 2.86877 13.9377 4.93332C15.0161 6.07473 15.8623 6.97028 17 6.99928V7C17.0095 7 17.019 6.99994 17.0285 6.99982Z" fill="currentColor"/>
</svg>
