<svg width="34" height="7" viewBox="0 0 34 7" fill="currentColor" xmlns="http://www.w3.org/2000/svg">
<path fill-rule="evenodd" clip-rule="evenodd" d="M17.0287 0.000180756C17.0382 6.03702e-05 17.0477 0 17.0572 0V0.000724717C18.1949 0.0297191 19.0411 0.925274 20.1195 2.06668C22.0701 4.13123 24.7808 7.00014 31.3514 7.00014C40.5794 7.00014 18.3351 10.7748 17.0572 10.9904V11C17.0572 11 17.0476 10.9984 17.0287 10.9952C17.0099 10.9984 17.0002 11 17.0002 11V10.9904C15.7224 10.7748 -6.52199 7.00014 2.70603 7.00014C9.2767 7.00014 11.9873 4.13123 13.9379 2.06668C15.0164 0.925274 15.8625 0.0297192 17.0002 0.000724718V0C17.0097 0 17.0192 6.03704e-05 17.0287 0.000180756Z" fill="currentColor"/>
</svg>
