<svg width="24" height="23" viewBox="0 0 24 23" fill="none" xmlns="http://www.w3.org/2000/svg">
<mask id="mask0_439_460971" style="mask-type:alpha" maskUnits="userSpaceOnUse" x="8" y="5" width="7" height="12">
<path d="M13.7517 5.31369L13.7197 5.34149L8.76992 9.88991C8.10074 10.5048 8.0868 11.4939 8.7281 12.1244L8.76992 12.1641L13.7197 16.7125C13.8485 16.831 14.0126 16.8973 14.181 16.9115L14.227 16.9141H14.273C14.4572 16.9089 14.6397 16.8417 14.7803 16.7125C15.0628 16.453 15.0728 16.038 14.8106 15.7673L14.7803 15.7379L10.1841 11.5143C9.9017 11.2548 9.89162 10.8398 10.1539 10.5691L10.1841 10.5397L14.7803 6.31615C15.0732 6.04701 15.0732 5.61064 14.7803 5.34149C14.6391 5.21173 14.4556 5.14453 14.2706 5.13989L14.2243 5.14004C14.0547 5.14535 13.8867 5.20323 13.7517 5.31369Z" fill="white"/>
</mask>
<g mask="url(#mask0_439_460971)">
<rect width="12" height="22.0541" transform="matrix(-1 0 0 1 18 0)" fill="currentColor" />
<rect width="12" height="22.0541" transform="matrix(-1 0 0 1 18 0)" fill="currentColor" />
</g>
</svg>
