<svg width="24" height="24" viewBox="0 0 24 24" fill="none" xmlns="http://www.w3.org/2000/svg">
<mask id="mask0_437_288899" style="mask-type:alpha" maskUnits="userSpaceOnUse" x="1" y="1" width="22" height="22">
<path fill-rule="evenodd" clip-rule="evenodd" d="M10.5106 1.25L10.443 1.2513C9.76946 1.2772 9.16794 1.68868 8.90143 2.31215L8.07854 4.23625L7.22804 4.72725L5.14443 4.47608C4.44905 4.39221 3.77065 4.73104 3.41999 5.33735L1.93202 7.91013L1.8982 7.97139C1.58403 8.56819 1.64032 9.2954 2.04808 9.83782L3.30604 11.5112V12.4885L2.04806 14.1622C1.62625 14.7233 1.58057 15.4822 1.93202 16.0899L3.41999 18.6626L3.45494 18.7205C3.81444 19.2904 4.47148 19.6051 5.14443 19.5239L7.22804 19.2725L8.07854 19.7635L8.90143 21.6879C9.17683 22.3321 9.80994 22.75 10.5106 22.75H13.4895L13.5571 22.7487C14.2306 22.7228 14.8321 22.3114 15.0986 21.6879L15.9213 19.7635L16.7718 19.2725L18.8556 19.5239C19.551 19.6078 20.2294 19.269 20.5801 18.6626L22.0681 16.0899L22.1019 16.0286C22.416 15.4318 22.3598 14.7046 21.952 14.1622L20.6938 12.4885V11.5112L21.952 9.83782C22.3738 9.2767 22.4195 8.51781 22.068 7.91013L20.5801 5.33735L20.5451 5.27952C20.1856 4.70962 19.5286 4.39491 18.8556 4.47608L16.7718 4.72725L15.9213 4.23625L15.0986 2.31205C14.8232 1.66785 14.1901 1.25 13.4895 1.25H10.5106ZM10.5106 2.75H13.4895C13.5896 2.75 13.6801 2.80969 13.7194 2.90172L14.5748 4.90251C14.6811 5.15105 14.865 5.35846 15.0991 5.49362L16.0941 6.06809C16.3283 6.20336 16.6002 6.25898 16.8688 6.22659L19.0353 5.96529C19.1346 5.9533 19.2315 6.00171 19.2816 6.08832L20.7696 8.6611C20.8198 8.74792 20.8133 8.85633 20.753 8.93649L19.4447 10.6768C19.2819 10.8934 19.1939 11.157 19.1939 11.4279L19.1939 12.572C19.1939 12.8429 19.2819 13.1065 19.4447 13.3231L20.753 15.0635C20.8133 15.1437 20.8198 15.2521 20.7696 15.3389L19.2816 17.9117C19.2315 17.9983 19.1346 18.0467 19.0353 18.0347L16.8688 17.7734C16.6002 17.741 16.3283 17.7966 16.0941 17.9319L15.0991 18.5064C14.865 18.6415 14.6811 18.8489 14.5748 19.0975L13.7194 21.0983C13.6801 21.1903 13.5896 21.25 13.4895 21.25H10.5106C10.4105 21.25 10.32 21.1903 10.2807 21.0983L9.42552 19.0977C9.31925 18.8491 9.13527 18.6416 8.90115 18.5065L7.90601 17.9319C7.67173 17.7966 7.39989 17.741 7.13131 17.7734L4.96481 18.0347C4.86547 18.0467 4.76856 17.9983 4.71846 17.9117L3.23049 15.3389C3.18029 15.2521 3.18681 15.1437 3.24707 15.0635L4.55536 13.3231C4.71816 13.1065 4.80619 12.8429 4.80619 12.572L4.80619 11.4279C4.80619 11.157 4.71816 10.8934 4.55536 10.6768L3.24708 8.93649C3.18682 8.85633 3.18029 8.74792 3.2305 8.6611L4.71846 6.08832C4.76856 6.00171 4.86547 5.9533 4.96481 5.96529L7.13131 6.22659C7.39989 6.25898 7.67173 6.20337 7.90601 6.0681L8.90115 5.49353C9.13527 5.35835 9.31925 5.15092 9.42552 4.90234L10.2807 2.90174C10.32 2.8097 10.4105 2.75 10.5106 2.75ZM12 7.5C14.4853 7.5 16.5 9.51472 16.5 12C16.5 14.4853 14.4853 16.5 12 16.5C9.51475 16.5 7.50004 14.4853 7.50004 12C7.50004 9.51472 9.51475 7.5 12 7.5ZM12 9C10.3432 9 9.00004 10.3431 9.00004 12C9.00004 13.6569 10.3432 15 12 15C13.6569 15 15 13.6569 15 12C15 10.3431 13.6569 9 12 9Z" fill="white"/>
</mask>
<g mask="url(#mask0_437_288899)">
<rect width="24" height="24" fill="black" fill-opacity="0.9"/>
</g>
</svg>
