<svg width="24" height="24" viewBox="0 0 24 24" fill="none" xmlns="http://www.w3.org/2000/svg">
<mask id="mask0_316_217502" style="mask-type:alpha" maskUnits="userSpaceOnUse" x="1" y="1" width="22" height="22">
<path fill-rule="evenodd" clip-rule="evenodd" d="M10.5105 1.25L10.4429 1.2513C9.76934 1.2772 9.16782 1.68868 8.90131 2.31215L8.07841 4.23625L7.22791 4.72725L5.1443 4.47608C4.44893 4.39221 3.77053 4.73104 3.41987 5.33735L1.9319 7.91013L1.89808 7.97139C1.58391 8.56819 1.6402 9.2954 2.04796 9.83782L3.30591 11.5112V12.4885L2.04793 14.1622C1.62613 14.7233 1.58045 15.4822 1.93189 16.0899L3.41987 18.6626L3.45481 18.7205C3.81431 19.2904 4.47136 19.6051 5.1443 19.5239L7.22791 19.2725L8.07841 19.7635L8.90131 21.6879C9.17671 22.3321 9.80982 22.75 10.5105 22.75H13.4894L13.557 22.7487C14.2305 22.7228 14.832 22.3114 15.0985 21.6879L15.9212 19.7635L16.7717 19.2725L18.8555 19.5239C19.5509 19.6078 20.2293 19.269 20.58 18.6626L22.0679 16.0899L22.1018 16.0286C22.4159 15.4318 22.3596 14.7046 21.9519 14.1622L20.6937 12.4885V11.5112L21.9519 9.83782C22.3737 9.2767 22.4194 8.51781 22.0679 7.91013L20.58 5.33735L20.545 5.27952C20.1855 4.70962 19.5285 4.39491 18.8555 4.47608L16.7717 4.72725L15.9212 4.23625L15.0985 2.31205C14.8231 1.66785 14.19 1.25 13.4894 1.25H10.5105ZM10.5105 2.75H13.4894C13.5895 2.75 13.6799 2.80969 13.7193 2.90172L14.5747 4.90251C14.6809 5.15105 14.8649 5.35846 15.099 5.49362L16.0939 6.06809C16.3282 6.20336 16.6001 6.25898 16.8686 6.22659L19.0351 5.96529C19.1345 5.9533 19.2314 6.00171 19.2815 6.08832L20.7695 8.6611C20.8197 8.74792 20.8131 8.85633 20.7529 8.93649L19.4446 10.6768C19.2818 10.8934 19.1938 11.157 19.1938 11.4279L19.1938 12.572C19.1938 12.8429 19.2818 13.1065 19.4446 13.3231L20.7529 15.0635C20.8131 15.1437 20.8197 15.2521 20.7695 15.3389L19.2815 17.9117C19.2314 17.9983 19.1345 18.0467 19.0351 18.0347L16.8686 17.7734C16.6001 17.741 16.3282 17.7966 16.0939 17.9319L15.099 18.5064C14.8649 18.6415 14.6809 18.8489 14.5747 19.0975L13.7193 21.0983C13.6799 21.1903 13.5895 21.25 13.4894 21.25H10.5105C10.4104 21.25 10.3199 21.1903 10.2806 21.0983L9.42539 19.0977C9.31913 18.8491 9.13515 18.6416 8.90102 18.5065L7.90589 17.9319C7.67161 17.7966 7.39977 17.741 7.13119 17.7734L4.96469 18.0347C4.86535 18.0467 4.76844 17.9983 4.71834 17.9117L3.23037 15.3389C3.18016 15.2521 3.18669 15.1437 3.24695 15.0635L4.55524 13.3231C4.71804 13.1065 4.80606 12.8429 4.80606 12.572L4.80607 11.4279C4.80607 11.157 4.71804 10.8934 4.55523 10.6768L3.24696 8.93649C3.1867 8.85633 3.18017 8.74792 3.23038 8.6611L4.71834 6.08832C4.76844 6.00171 4.86535 5.9533 4.96469 5.96529L7.13119 6.22659C7.39977 6.25898 7.67161 6.20337 7.90589 6.0681L8.90102 5.49353C9.13515 5.35835 9.31913 5.15092 9.42539 4.90234L10.2806 2.90174C10.3199 2.8097 10.4104 2.75 10.5105 2.75ZM11.9999 7.5C14.4852 7.5 16.4999 9.51472 16.4999 12C16.4999 14.4853 14.4852 16.5 11.9999 16.5C9.51463 16.5 7.49991 14.4853 7.49991 12C7.49991 9.51472 9.51463 7.5 11.9999 7.5ZM11.9999 9C10.3431 9 8.99991 10.3431 8.99991 12C8.99991 13.6569 10.3431 15 11.9999 15C13.6568 15 14.9999 13.6569 14.9999 12C14.9999 10.3431 13.6568 9 11.9999 9Z" fill="white"/>
</mask>
<g mask="url(#mask0_316_217502)">
<rect width="24" height="24" fill="white" fill-opacity="0.6"/>
</g>
</svg>
