<svg width="24" height="24" viewBox="0 0 24 24" fill="none" xmlns="http://www.w3.org/2000/svg">
<mask id="mask0_316_183915" style="mask-type:alpha" maskUnits="userSpaceOnUse" x="1" y="1" width="22" height="22">
<path fill-rule="evenodd" clip-rule="evenodd" d="M10.443 1.2513L10.5106 1.25H13.4895C14.1901 1.25 14.8232 1.66785 15.0986 2.31205L15.9213 4.23625L16.7718 4.72725L18.8556 4.47608C19.5286 4.39491 20.1856 4.70962 20.5451 5.27952L20.5801 5.33735L22.068 7.91013C22.4195 8.51781 22.3738 9.2767 21.952 9.83782L20.6938 11.5112V12.4885L21.952 14.1622C22.3598 14.7046 22.416 15.4318 22.1019 16.0286L22.0681 16.0899L20.5801 18.6626C20.2294 19.269 19.551 19.6078 18.8556 19.5239L16.7718 19.2725L15.9213 19.7635L15.0986 21.6879C14.8321 22.3114 14.2306 22.7228 13.5571 22.7487L13.4895 22.75H10.5106C9.80994 22.75 9.17683 22.3321 8.90143 21.6879L8.07854 19.7635L7.22804 19.2725L5.14443 19.5239C4.47148 19.6051 3.81444 19.2904 3.45494 18.7205L3.41999 18.6626L1.93202 16.0899C1.58057 15.4822 1.62625 14.7233 2.04806 14.1622L3.30604 12.4885V11.5112L2.04808 9.83782C1.64032 9.2954 1.58403 8.56819 1.8982 7.97139L1.93202 7.91013L3.41999 5.33735C3.77065 4.73104 4.44905 4.39221 5.14443 4.47608L7.22804 4.72725L8.07854 4.23625L8.90143 2.31215C9.16794 1.68868 9.76946 1.2772 10.443 1.2513ZM12 7.5C14.4853 7.5 16.5 9.51472 16.5 12C16.5 14.4853 14.4853 16.5 12 16.5C9.51475 16.5 7.50004 14.4853 7.50004 12C7.50004 9.51472 9.51475 7.5 12 7.5ZM12 9C10.3432 9 9.00004 10.3431 9.00004 12C9.00004 13.6569 10.3432 15 12 15C13.6569 15 15 13.6569 15 12C15 10.3431 13.6569 9 12 9Z" fill="currentColor"/>
</mask>
<g mask="url(#mask0_316_183915)">
<rect width="24" height="24" fill="currentColor" fill-opacity="0.9"/>
</g>
</svg>
