<svg width="24" height="24" viewBox="0 0 24 24" fill="none" xmlns="http://www.w3.org/2000/svg">
<mask id="mask0_656_173911" style="mask-type:alpha" maskUnits="userSpaceOnUse" x="1" y="1" width="22" height="22">
<path fill-rule="evenodd" clip-rule="evenodd" d="M10.4429 1.2513L10.5105 1.25H13.4894C14.19 1.25 14.8231 1.66785 15.0985 2.31205L15.9212 4.23625L16.7717 4.72725L18.8555 4.47608C19.5285 4.39491 20.1855 4.70962 20.545 5.27952L20.58 5.33735L22.0679 7.91013C22.4194 8.51781 22.3737 9.2767 21.9519 9.83782L20.6937 11.5112V12.4885L21.9519 14.1622C22.3596 14.7046 22.4159 15.4318 22.1018 16.0286L22.0679 16.0899L20.58 18.6626C20.2293 19.269 19.5509 19.6078 18.8555 19.5239L16.7717 19.2725L15.9212 19.7635L15.0985 21.6879C14.832 22.3114 14.2305 22.7228 13.557 22.7487L13.4894 22.75H10.5105C9.80982 22.75 9.17671 22.3321 8.90131 21.6879L8.07841 19.7635L7.22791 19.2725L5.1443 19.5239C4.47136 19.6051 3.81431 19.2904 3.45481 18.7205L3.41987 18.6626L1.93189 16.0899C1.58045 15.4822 1.62613 14.7233 2.04793 14.1622L3.30591 12.4885V11.5112L2.04796 9.83782C1.6402 9.2954 1.58391 8.56819 1.89808 7.97139L1.9319 7.91013L3.41987 5.33735C3.77053 4.73104 4.44893 4.39221 5.1443 4.47608L7.22791 4.72725L8.07841 4.23625L8.90131 2.31215C9.16782 1.68868 9.76934 1.2772 10.4429 1.2513ZM11.9999 7.5C14.4852 7.5 16.4999 9.51472 16.4999 12C16.4999 14.4853 14.4852 16.5 11.9999 16.5C9.51463 16.5 7.49991 14.4853 7.49991 12C7.49991 9.51472 9.51463 7.5 11.9999 7.5ZM11.9999 9C10.3431 9 8.99991 10.3431 8.99991 12C8.99991 13.6569 10.3431 15 11.9999 15C13.6568 15 14.9999 13.6569 14.9999 12C14.9999 10.3431 13.6568 9 11.9999 9Z" fill="white"/>
</mask>
<g mask="url(#mask0_656_173911)">
<rect width="24" height="24" fill="#317AF7"/>
</g>
</svg>
