<svg width="16" height="16" viewBox="0 0 16 16" fill="none" xmlns="http://www.w3.org/2000/svg">
<mask id="mask0_147_120923" style="mask-type:alpha" maskUnits="userSpaceOnUse" x="2" y="2" width="12" height="12">
<path fill-rule="evenodd" clip-rule="evenodd" d="M13.1465 11.2155C13.4615 10.9005 13.2384 10.362 12.7929 10.362H11.3334V3.19529C11.3334 2.8271 11.0349 2.52863 10.6667 2.52863C10.2985 2.52863 10 2.8271 10 3.19529V10.862V12.5286V13.1549C10 13.6003 10.5386 13.8234 10.8536 13.5084L13.1465 11.2155ZM3.20716 6.02863C2.7617 6.02863 2.53862 5.49005 2.8536 5.17507L5.1465 2.88218C5.46148 2.5672 6.00005 2.79028 6.00005 3.23573V3.86115C6.00005 3.86142 6.00005 3.86169 6.00005 3.86196L6.00005 5.52863L6.00005 13.1953C6.00005 13.5635 5.70157 13.862 5.33338 13.862C4.96519 13.862 4.66672 13.5635 4.66672 13.1953V6.02863H3.20716Z" fill="white"/>
</mask>
<g mask="url(#mask0_147_120923)">
<rect width="8" height="16" fill="currentColor" fill-opacity="0.9"/>
<rect x="8" width="8" height="16" fill="currentColor" fill-opacity="0.9"/>
</g>
</svg>
