<svg width="12" height="12" viewBox="0 0 12 12" fill="none" xmlns="http://www.w3.org/2000/svg">
<mask id="mask0_381_310332" style="mask-type:alpha" maskUnits="userSpaceOnUse" x="0" y="0" width="12" height="11">
<path d="M5.64131 0.726795C5.78803 0.429496 6.21197 0.429496 6.35869 0.726794L7.67029 3.38437C7.72855 3.50243 7.84118 3.58426 7.97146 3.60319L10.9043 4.02935C11.2324 4.07702 11.3634 4.48021 11.126 4.71163L9.00376 6.78026C8.90948 6.87216 8.86646 7.00456 8.88872 7.13432L9.3897 10.0553C9.44575 10.382 9.10277 10.6312 8.80932 10.4769L6.18614 9.09786C6.06961 9.03659 5.93039 9.03659 5.81386 9.09786L3.19068 10.4769C2.89723 10.6312 2.55425 10.382 2.6103 10.0553L3.11128 7.13432C3.13354 7.00456 3.09052 6.87216 2.99624 6.78026L0.874041 4.71163C0.636634 4.48021 0.767638 4.07702 1.09573 4.02935L4.02854 3.60319C4.15882 3.58426 4.27145 3.50243 4.32971 3.38437L5.64131 0.726795Z" fill="currentColor"/>
</mask>
<g mask="url(#mask0_381_310332)">
<path d="M5.64131 0.726795C5.78803 0.429496 6.21197 0.429496 6.35869 0.726794L7.67029 3.38437C7.72855 3.50243 7.84118 3.58426 7.97146 3.60319L10.9043 4.02935C11.2324 4.07702 11.3634 4.48021 11.126 4.71163L9.00376 6.78026C8.90948 6.87216 8.86646 7.00456 8.88872 7.13432L9.3897 10.0553C9.44575 10.382 9.10277 10.6312 8.80932 10.4769L6.18614 9.09786C6.06961 9.03659 5.93039 9.03659 5.81386 9.09786L3.19068 10.4769C2.89723 10.6312 2.55425 10.382 2.6103 10.0553L3.11128 7.13432C3.13354 7.00456 3.09052 6.87216 2.99624 6.78026L0.874041 4.71163C0.636634 4.48021 0.767638 4.07702 1.09573 4.02935L4.02854 3.60319C4.15882 3.58426 4.27145 3.50243 4.32971 3.38437L5.64131 0.726795Z" fill="currentColor" fill-opacity="0.1"/>
</g>
</svg>
