<?xml version="1.0" encoding="UTF-8"?>
<svg width="18px" height="18px" viewBox="0 0 18 18" version="1.1" xmlns="http://www.w3.org/2000/svg" xmlns:xlink="http://www.w3.org/1999/xlink">
    <title>xmark</title>
    <g id="页面-1" stroke="none" stroke-width="1" fill="none" fill-rule="evenodd">
        <g id="xmark" fill="currentColor" fill-rule="nonzero">
            <rect id="矩形" opacity="0" x="0" y="0" width="18" height="18"></rect>
            <path d="M14.835,3.96 C14.94,3.84 14.9925,3.705 14.9925,3.555 C14.9925,3.405 14.94,3.275 14.835,3.165 C14.725,3.045 14.5925,2.985 14.4375,2.985 C14.2825,2.985 14.15,3.045 14.04,3.165 L9,8.205 L3.96,3.165 C3.85,3.045 3.7175,2.985 3.5625,2.985 C3.4075,2.985 3.27,3.045 3.15,3.165 C3.055,3.275 3.0075,3.405 3.0075,3.555 C3.0075,3.705 3.055,3.84 3.15,3.96 L8.205,9 L3.15,14.025 C3.055,14.145 3.0075,14.2825 3.0075,14.4375 C3.0075,14.5925 3.055,14.725 3.15,14.835 C3.27,14.93 3.4075,14.98 3.5625,14.985 C3.7175,14.99 3.85,14.94 3.96,14.835 L9,9.795 L14.04,14.835 C14.15,14.94 14.2825,14.9925 14.4375,14.9925 C14.5925,14.9925 14.725,14.94 14.835,14.835 C14.94,14.725 14.9925,14.5925 14.9925,14.4375 C14.9925,14.2825 14.94,14.145 14.835,14.025 L9.795,9 L14.835,3.96 Z" id="路径"></path>
        </g>
    </g>
</svg>